<svg width="24" height="24" viewBox="0 0 24 24" fill="none" xmlns="http://www.w3.org/2000/svg">
<path d="M22.4764 9.68941L21.9209 8.71909C21.8959 8.67632 21.8551 8.64516 21.8072 8.63243C21.7593 8.61969 21.7084 8.62641 21.6654 8.65112L20.4772 9.34487L18.642 4.27769C18.5451 3.97533 18.3546 3.71159 18.0981 3.52454C17.8415 3.33749 17.5322 3.23682 17.2147 3.23706H7.0592C6.24591 3.23706 5.52404 3.76206 5.27326 4.53784L3.52482 9.34722L2.3342 8.65347C2.29127 8.62876 2.24031 8.62204 2.19245 8.63477C2.14458 8.6475 2.1037 8.67866 2.07873 8.72144L1.52326 9.68941C1.4717 9.77847 1.50216 9.89097 1.59123 9.94253L3.00685 10.7675L2.66701 11.705C2.63888 11.78 2.62482 11.8597 2.62482 11.9394V20.1003C2.62482 20.4683 2.90138 20.766 3.24123 20.766H4.8256C5.11388 20.766 5.36466 20.548 5.4256 20.2433L5.60607 19.3597H18.3936L18.574 20.2433C18.6373 20.548 18.8858 20.766 19.174 20.766H20.7584C21.0983 20.766 21.3748 20.4683 21.3748 20.1003V11.9394C21.3748 11.8597 21.3608 11.78 21.3326 11.705L20.9928 10.7675L22.4061 9.94253C22.4486 9.91796 22.4798 9.87768 22.493 9.83034C22.5061 9.783 22.5002 9.7324 22.4764 9.68941ZM6.18732 14.555C5.66935 14.555 5.24982 14.1355 5.24982 13.6175C5.24982 13.0996 5.66935 12.68 6.18732 12.68C6.70529 12.68 7.12482 13.0996 7.12482 13.6175C7.12482 14.1355 6.70529 14.555 6.18732 14.555ZM15.2811 16.3128C15.2811 16.416 15.1967 16.5003 15.0936 16.5003H8.90607C8.80295 16.5003 8.71857 16.416 8.71857 16.3128V14.3441C8.71857 14.241 8.80295 14.1566 8.90607 14.1566H9.84357C9.9467 14.1566 10.0311 14.241 10.0311 14.3441V15.1878H13.9686V14.3441C13.9686 14.241 14.0529 14.1566 14.1561 14.1566H15.0936C15.1967 14.1566 15.2811 14.241 15.2811 14.3441V16.3128ZM17.8123 14.555C17.2944 14.555 16.8748 14.1355 16.8748 13.6175C16.8748 13.0996 17.2944 12.68 17.8123 12.68C18.3303 12.68 18.7498 13.0996 18.7498 13.6175C18.7498 14.1355 18.3303 14.555 17.8123 14.555ZM5.15607 9.79722L6.85998 5.11206L6.8717 5.08159L6.88107 5.05112C6.90685 4.97378 6.97716 4.92222 7.0592 4.92222H17.0811L18.8483 9.79722H5.15607Z" fill="black"/>
<rect x="8" y="14" width="8" height="3" fill="black"/>
</svg>
