<svg width="62" height="44" viewBox="0 0 62 44" fill="none" xmlns="http://www.w3.org/2000/svg">
<path d="M9.156 28.92V37.2H8.316V30.588L5.364 37.2H4.752L1.8 30.612V37.2H0.96V28.92H1.848L5.052 36.096L8.256 28.92H9.156ZM15.7896 37.284C15.0136 37.284 14.3096 37.104 13.6776 36.744C13.0456 36.376 12.5456 35.868 12.1776 35.22C11.8176 34.564 11.6376 33.824 11.6376 33C11.6376 32.176 11.8176 31.44 12.1776 30.792C12.5456 30.136 13.0456 29.628 13.6776 29.268C14.3096 28.9 15.0136 28.716 15.7896 28.716C16.5736 28.716 17.2816 28.9 17.9136 29.268C18.5456 29.628 19.0416 30.136 19.4016 30.792C19.7616 31.44 19.9416 32.176 19.9416 33C19.9416 33.824 19.7616 34.564 19.4016 35.22C19.0416 35.868 18.5456 36.376 17.9136 36.744C17.2816 37.104 16.5736 37.284 15.7896 37.284ZM15.7896 36.552C16.4136 36.552 16.9736 36.408 17.4696 36.12C17.9656 35.832 18.3576 35.42 18.6456 34.884C18.9336 34.34 19.0776 33.712 19.0776 33C19.0776 32.288 18.9336 31.664 18.6456 31.128C18.3576 30.592 17.9656 30.18 17.4696 29.892C16.9736 29.604 16.4136 29.46 15.7896 29.46C15.1656 29.46 14.6056 29.604 14.1096 29.892C13.6136 30.18 13.2216 30.592 12.9336 31.128C12.6456 31.664 12.5016 32.288 12.5016 33C12.5016 33.712 12.6456 34.34 12.9336 34.884C13.2216 35.42 13.6136 35.832 14.1096 36.12C14.6056 36.408 15.1656 36.552 15.7896 36.552ZM26.3626 32.868C26.8346 32.956 27.2346 33.196 27.5626 33.588C27.8906 33.98 28.0546 34.436 28.0546 34.956C28.0546 35.38 27.9466 35.764 27.7306 36.108C27.5226 36.444 27.2146 36.712 26.8066 36.912C26.3986 37.104 25.9106 37.2 25.3426 37.2H22.4386V28.812H25.2586C26.1066 28.812 26.7506 29.008 27.1906 29.4C27.6386 29.792 27.8626 30.3 27.8626 30.924C27.8626 31.444 27.7226 31.868 27.4426 32.196C27.1626 32.516 26.8026 32.74 26.3626 32.868ZM23.2786 32.52H25.2346C25.8026 32.52 26.2386 32.388 26.5426 32.124C26.8546 31.852 27.0106 31.48 27.0106 31.008C27.0106 30.544 26.8546 30.18 26.5426 29.916C26.2386 29.652 25.7906 29.52 25.1986 29.52H23.2786V32.52ZM25.2826 36.492C25.8906 36.492 26.3626 36.348 26.6986 36.06C27.0426 35.772 27.2146 35.376 27.2146 34.872C27.2146 34.368 27.0346 33.968 26.6746 33.672C26.3226 33.368 25.8466 33.216 25.2466 33.216H23.2786V36.492H25.2826ZM30.1747 33C30.1747 32.176 30.3547 31.44 30.7147 30.792C31.0747 30.136 31.5667 29.628 32.1907 29.268C32.8147 28.9 33.5107 28.716 34.2787 28.716C35.2147 28.716 36.0147 28.94 36.6787 29.388C37.3507 29.828 37.8387 30.452 38.1427 31.26H37.1587C36.9187 30.692 36.5507 30.248 36.0547 29.928C35.5667 29.608 34.9747 29.448 34.2787 29.448C33.6627 29.448 33.1067 29.592 32.6107 29.88C32.1227 30.168 31.7387 30.584 31.4587 31.128C31.1787 31.664 31.0387 32.288 31.0387 33C31.0387 33.712 31.1787 34.336 31.4587 34.872C31.7387 35.408 32.1227 35.82 32.6107 36.108C33.1067 36.396 33.6627 36.54 34.2787 36.54C34.9747 36.54 35.5667 36.384 36.0547 36.072C36.5507 35.752 36.9187 35.312 37.1587 34.752H38.1427C37.8387 35.552 37.3507 36.172 36.6787 36.612C36.0067 37.052 35.2067 37.272 34.2787 37.272C33.5107 37.272 32.8147 37.092 32.1907 36.732C31.5667 36.364 31.0747 35.856 30.7147 35.208C30.3547 34.56 30.1747 33.824 30.1747 33ZM45.6366 35.208H41.8206L41.0886 37.2H40.2006L43.2606 28.92H44.2086L47.2566 37.2H46.3686L45.6366 35.208ZM45.3846 34.512L43.7286 29.976L42.0726 34.512H45.3846ZM54.0287 37.2L51.9527 33.696H50.4047V37.2H49.5647V28.812H52.0847C53.0207 28.812 53.7287 29.036 54.2087 29.484C54.6967 29.932 54.9407 30.52 54.9407 31.248C54.9407 31.856 54.7647 32.376 54.4127 32.808C54.0687 33.232 53.5567 33.508 52.8767 33.636L55.0367 37.2H54.0287ZM50.4047 33.012H52.0967C52.7527 33.012 53.2447 32.852 53.5727 32.532C53.9087 32.212 54.0767 31.784 54.0767 31.248C54.0767 30.696 53.9167 30.272 53.5967 29.976C53.2767 29.672 52.7727 29.52 52.0847 29.52H50.4047V33.012Z" fill="#00ADEE"/>
<path d="M30.8 3.30001C25.3324 3.30001 20.9 7.73239 20.9 13.2C20.9 18.6676 25.3324 23.1 30.8 23.1C36.2676 23.1 40.7 18.6676 40.7 13.2C40.7 7.73239 36.2676 3.30001 30.8 3.30001Z" stroke="#00ADEE" stroke-linecap="round" stroke-linejoin="round"/>
<path d="M30.8 11C29.585 11 28.6 11.985 28.6 13.2C28.6 14.4151 29.585 15.4 30.8 15.4C32.015 15.4 33 14.4151 33 13.2C33 11.985 32.015 11 30.8 11Z" stroke="#00ADEE" stroke-linecap="round" stroke-linejoin="round"/>
<path d="M30.8 11V3.3" stroke="#00ADEE" stroke-linecap="round" stroke-linejoin="round"/>
<path d="M33 13.2L40.425 15.4" stroke="#00ADEE" stroke-linecap="round" stroke-linejoin="round"/>
<path d="M28.6 13.2L21.175 15.4" stroke="#00ADEE" stroke-linecap="round" stroke-linejoin="round"/>
</svg>
